<svg width="398" height="96" viewBox="0 0 398 96" fill="none" xmlns="http://www.w3.org/2000/svg">
<path fill-rule="evenodd" clip-rule="evenodd" d="M43.3958 0.96639C41.9807 3.36828 38.6728 8.63962 37.3535 10.5952C35.3476 13.5686 32.5145 18.1965 31.671 19.878C29.2697 24.6638 28.1908 30.1529 28.8795 34.0807C29.4627 37.407 31.0118 40.4725 35.1595 46.5079C35.4775 46.9706 35.9357 47.6888 36.1778 48.1039C36.4199 48.519 36.9313 49.3935 37.3143 50.0471C38.1356 51.4482 39.3949 54.1856 39.2182 54.1856C39.1504 54.1856 39.2048 54.3185 39.339 54.4812C39.9751 55.2519 41.2198 59.8286 41.6818 63.0959C41.8578 64.341 42.0038 65.4724 42.006 65.6102C42.0099 65.8631 45.671 66.2886 45.8961 66.0623C45.9586 65.9996 46.1047 65.1685 46.2209 64.2158C46.7256 60.0787 47.9037 55.8666 49.4416 52.6997C50.5524 50.4127 51.9585 47.8973 52.1777 47.8057C52.2745 47.7649 52.3537 47.6375 52.3537 47.5222C52.3537 47.4071 53.3315 45.8472 54.5266 44.0558C57.0014 40.3457 58.0344 38.3921 58.7693 36.0318C59.2031 34.6389 59.2823 33.9165 59.2772 31.3947C59.2713 28.2955 59.047 26.8325 58.1751 24.2034C56.9798 20.5998 55.4811 17.8841 50.4562 10.2168C48.8443 7.75719 46.7659 4.47132 45.8376 2.9149C44.909 1.35826 44.1185 0.0481169 44.0804 0.00319896C44.0426 -0.041719 43.7345 0.39175 43.3958 0.96639ZM13.3077 42.0393C10.135 42.5044 7.58974 43.5148 5.27669 45.2265C3.68881 46.4019 2.41499 47.9752 1.51332 49.8748C-2.53375 58.4001 1.80492 66.4778 11.3261 68.1449C12.1164 68.2834 12.8081 68.3513 12.8631 68.2962C12.9179 68.2409 12.7973 67.4592 12.5953 66.5588C11.9427 63.654 12.7066 61.0193 14.7355 59.1763C17.9914 56.219 23.9362 55.8949 28.8775 58.4052C31.601 59.7888 33.4365 61.5886 34.6687 64.0837C35.1355 65.0289 35.6166 65.8757 35.7376 65.9653C36.0763 66.2165 40.4696 66.0687 40.4674 65.8063C40.4614 65.1387 39.2882 60.5073 38.7862 59.1699C35.8717 51.4055 30.1978 45.2073 24.0562 43.0789C20.8503 41.9679 16.599 41.5567 13.3077 42.0393ZM66.6702 42.2502C63.0061 43.0486 59.97 44.5813 57.2741 46.9943C56.4582 47.7244 55.7086 48.4215 55.6085 48.5432C51.0152 54.1203 48.5677 59.2232 47.6222 65.1938L47.4732 66.1342H49.9887H52.504L52.7543 65.3044C53.416 63.1081 56.2192 59.9775 58.7272 58.6335C61.0016 57.4148 62.5545 57.0149 65.4696 56.8972C69.1914 56.7468 71.3174 57.3946 73.3824 59.3086C75.4866 61.2587 76.0588 64.0456 75.1195 67.7711L74.958 68.4124L76.1453 68.2573C82.0107 67.4912 86.2574 64.1485 87.6861 59.1732C88.2427 57.2351 88.0378 53.7567 87.2372 51.5533C85.51 46.7989 82.5523 44.1215 77.2882 42.5469C74.5405 41.7251 69.7018 41.5899 66.6702 42.2502ZM34.3137 67.5235C33.5967 67.8884 32.7661 69.151 32.7681 69.8732C32.7696 70.5527 33.3748 71.5434 34.1004 72.0543C34.554 72.3738 35.7152 72.43 43.5639 72.5123C50.1192 72.5814 52.7228 72.536 53.3051 72.3426C54.9482 71.7974 55.6655 70.0861 54.886 68.5706C54.183 67.204 54.4746 67.2403 44.2167 67.2439C37.1721 67.2463 34.7228 67.3155 34.3137 67.5235ZM24.5714 68.3542C20.8494 68.9844 18.1193 70.8842 16.6397 73.874C15.9827 75.2019 15.9304 75.4711 15.9304 77.525C15.9304 79.562 15.9878 79.8643 16.6366 81.2414C18.3378 84.8521 22.0625 86.9064 26.9432 86.9257C30.3144 86.9392 32.8656 86.0021 35.178 83.9009C37.0775 82.175 38.8901 78.9028 39.7244 75.6933C40.2713 73.5892 40.3329 73.6574 37.8828 73.6574H35.7365L34.7466 75.1277C33.3788 77.1597 31.9643 77.9722 29.7954 77.9722C27.743 77.9722 26.3217 77.163 25.5054 75.5296C24.8025 74.1232 24.7807 71.6009 25.4533 69.5086C25.6978 68.7481 25.834 68.1373 25.7559 68.1517C25.6777 68.1659 25.1449 68.257 24.5714 68.3542ZM62.352 68.9669C62.9662 70.7169 63.2321 73.0467 62.9473 74.1833C62.4732 76.0763 61.2877 77.3796 59.5955 77.8675C58.4797 78.1892 57.7851 78.1328 56.3867 77.6068C54.998 77.0844 53.2924 75.5313 52.8031 74.3436L52.5203 73.6574H50.2363C47.6149 73.6574 47.6757 73.5892 48.2754 75.8546C49.8109 81.6557 53.3846 85.6273 58.0479 86.715C59.6611 87.0912 62.9653 87.0343 64.5682 86.6026C67.6933 85.7609 70.125 83.906 71.3304 81.4446C72.0124 80.0514 72.0509 79.8428 72.0509 77.5296C72.0509 75.2156 72.0126 75.0082 71.3288 73.6118C69.9122 70.7185 67.0272 68.8605 62.9757 68.2323L62.0434 68.0878L62.352 68.9669ZM41.6287 75.0403C40.4909 81.0613 36.9291 86.1138 32.4476 88.0648C31.7799 88.3553 31.2317 88.6735 31.2297 88.7715C31.2227 89.1105 33.271 89.8579 34.5179 89.9717C36.5266 90.1549 38.0271 89.6008 39.481 88.1391L40.6894 86.9241V88.2635C40.6894 89.6823 41.2898 91.8124 42.0605 93.1292C42.9158 94.5898 43.8806 95.9942 44.0331 96C44.117 96.0031 44.6896 95.2342 45.3061 94.2909C46.5009 92.4623 47.2318 90.4687 47.4338 88.4861L47.5582 87.2655L48.4812 88.1597C49.9361 89.569 50.8415 89.9208 53.014 89.9208C54.5303 89.9208 55.0825 89.8228 55.93 89.4032C56.5051 89.1185 56.9695 88.8197 56.962 88.7394C56.9547 88.6589 56.171 88.2183 55.2203 87.7603C54.0433 87.193 52.9688 86.4362 51.8524 85.3878C49.1317 82.8333 47.6006 80.0282 46.5984 75.7628L46.1036 73.6574H43.997H41.8902L41.6287 75.0403Z" fill="white"/>
<path fill-rule="evenodd" clip-rule="evenodd" d="M43.8213 33.0538V65.8381H44.7667H45.7122L46.0895 63.247C47.1019 56.2924 48.7864 52.3076 54.0141 44.5009C57.6755 39.033 58.6577 36.8399 59.0696 33.211C59.5945 28.5869 58.185 23.3868 54.8343 17.586C54.2256 16.5319 52.3135 13.5359 50.5856 10.9282C48.8576 8.32053 46.6643 4.89693 45.7118 3.3202C44.7592 1.74347 43.9441 0.412178 43.9006 0.361458C43.8568 0.310958 43.8213 15.0226 43.8213 33.0538ZM68.3431 42.0286C66.0988 42.3418 63.0984 43.2851 61.3317 44.2332C59.5075 45.2123 57.607 46.6018 57.6895 46.8962C57.72 47.0049 57.6044 47.0938 57.4329 47.0938C56.7948 47.0938 52.4967 52.1622 52.7659 52.5969C52.8445 52.7237 52.7643 52.8273 52.5877 52.8273C52.2812 52.8273 51.8893 53.4157 51.9634 53.7646C51.9828 53.8556 51.9092 53.9299 51.7998 53.9299C51.5161 53.9299 49.7239 57.4894 49.0251 59.4406C48.3638 61.2874 47.5784 64.466 47.5784 65.2954C47.5784 65.8375 47.581 65.8381 49.8928 65.8381H52.2072L52.8921 64.4599C54.2196 61.7882 55.5464 60.3663 58.2471 58.7199C64.2574 55.0559 72.8293 56.4163 75.0368 61.3845C75.641 62.744 75.7824 65.11 75.3658 66.8856C75.1879 67.6438 75.0679 68.2639 75.0989 68.2639C75.13 68.2639 75.9869 68.1073 77.0033 67.9159C82.707 66.8422 86.4535 63.6263 87.6624 58.7673C88.3792 55.8873 87.9606 53.0302 86.3435 49.7612C84.4961 46.0271 81.4778 43.7445 76.8008 42.5448C74.3755 41.9228 70.7072 41.6989 68.3431 42.0286ZM43.8213 69.6853V72.2333L48.5177 72.2324C52.7829 72.2317 53.2788 72.1922 53.9204 71.8019C55.3216 70.9494 55.3897 69.0341 54.063 67.7895C53.5233 67.2832 53.4021 67.27 48.6662 67.2045L43.8213 67.1374V69.6853ZM62.6471 69.8626C63.2507 72.0983 63.1231 74.4259 62.3288 75.6789C61.2236 77.4221 59.8304 78.0967 57.7284 77.9066C55.5422 77.7088 53.678 76.3934 52.5796 74.2731L52.2083 73.5564H49.9792H47.7501L47.9022 74.3833C48.5981 78.1706 50.8908 82.3197 53.3977 84.3284C57.161 87.3441 63.6456 87.6107 67.784 84.9199C69.4612 83.8294 70.4765 82.7173 71.2787 81.0916C71.9475 79.7361 71.9997 79.4703 71.9997 77.4164C71.9997 75.3706 71.946 75.0941 71.2922 73.7729C70.3969 71.9633 68.8773 70.4252 67.1444 69.574C65.6859 68.8575 63.7351 68.2707 62.7978 68.2665L62.2155 68.2639L62.6471 69.8626ZM43.8213 84.6094C43.8213 96.9548 43.7309 96.4077 45.3168 93.6576C46.5863 91.4564 46.9436 90.3932 47.1025 88.3457L47.2469 86.4858L47.7689 87.2475C48.8985 88.8963 51.3735 90.0364 53.3228 89.806C54.3998 89.6787 56.6532 88.8419 56.6246 88.5799C56.6162 88.5038 55.8248 88.0579 54.8656 87.5888C51.7879 86.0838 49.3272 83.4104 47.7344 79.8413C46.9631 78.1128 46.0313 74.9258 46.0313 74.0157C46.0313 73.6115 45.8987 73.5564 44.9263 73.5564H43.8213V84.6094Z" fill="#EAEAEA"/>
<path d="M127.708 36.613C126.013 36.613 124.729 37.0503 123.854 37.925C123.007 38.7997 122.392 40.2893 122.009 42.394C122.009 42.4487 121.927 42.476 121.763 42.476C121.626 42.476 121.558 42.4487 121.558 42.394C121.613 42.0387 121.667 41.5467 121.722 40.918C121.777 40.262 121.831 39.565 121.886 38.827C121.968 38.089 122.023 37.3783 122.05 36.695C122.105 35.9843 122.132 35.4103 122.132 34.973C122.132 34.8363 122.2 34.768 122.337 34.768C122.501 34.768 122.583 34.8363 122.583 34.973C122.583 35.2463 122.72 35.4513 122.993 35.588C123.266 35.6973 123.567 35.7793 123.895 35.834C124.25 35.8613 124.551 35.875 124.797 35.875C127.148 35.957 129.895 35.998 133.038 35.998C134.979 35.998 136.509 35.9843 137.63 35.957C138.778 35.9023 139.885 35.875 140.951 35.875C141.88 35.875 142.591 35.8203 143.083 35.711C143.602 35.5743 143.93 35.2873 144.067 34.85C144.094 34.7407 144.176 34.686 144.313 34.686C144.45 34.686 144.518 34.7407 144.518 34.85C144.491 35.26 144.45 35.8203 144.395 36.531C144.34 37.2417 144.299 37.9797 144.272 38.745C144.245 39.5103 144.217 40.221 144.19 40.877C144.163 41.533 144.149 42.0387 144.149 42.394C144.149 42.4487 144.067 42.476 143.903 42.476C143.739 42.476 143.657 42.4487 143.657 42.394C143.575 40.262 143.138 38.7723 142.345 37.925C141.552 37.0503 140.24 36.613 138.409 36.613C137.261 36.613 136.4 36.6677 135.826 36.777C135.252 36.8863 134.869 37.1323 134.678 37.515C134.514 37.8703 134.432 38.458 134.432 39.278V58.179C134.432 58.9717 134.528 59.573 134.719 59.983C134.91 60.393 135.279 60.6663 135.826 60.803C136.4 60.9397 137.261 61.008 138.409 61.008C138.491 61.008 138.532 61.09 138.532 61.254C138.532 61.418 138.491 61.5 138.409 61.5C137.698 61.5 136.892 61.4863 135.99 61.459C135.088 61.4317 134.104 61.418 133.038 61.418C132.027 61.418 131.07 61.4317 130.168 61.459C129.266 61.4863 128.446 61.5 127.708 61.5C127.653 61.5 127.626 61.418 127.626 61.254C127.626 61.09 127.653 61.008 127.708 61.008C128.829 61.008 129.676 60.9397 130.25 60.803C130.851 60.6663 131.248 60.393 131.439 59.983C131.63 59.573 131.726 58.9717 131.726 58.179V39.196C131.726 38.376 131.63 37.7883 131.439 37.433C131.248 37.0503 130.865 36.818 130.291 36.736C129.717 36.654 128.856 36.613 127.708 36.613ZM155.977 61.746C155.867 61.8007 155.758 61.828 155.649 61.828C155.293 61.828 154.952 61.541 154.624 60.967C154.296 60.3657 154.132 59.5047 154.132 58.384V50.635C154.132 48.9403 153.886 47.7513 153.394 47.068C152.929 46.3847 152.314 46.043 151.549 46.043C150.865 46.043 150.305 46.2207 149.868 46.576C149.43 46.904 149.102 47.3003 148.884 47.765C148.692 48.2297 148.556 48.667 148.474 49.077C148.392 49.4597 148.255 49.8423 148.064 50.225C147.872 50.5803 147.49 50.758 146.916 50.758C146.451 50.758 146.109 50.635 145.891 50.389C145.672 50.1157 145.563 49.8287 145.563 49.528C145.563 49.0087 145.809 48.503 146.301 48.011C146.82 47.519 147.462 47.068 148.228 46.658C149.02 46.2207 149.84 45.879 150.688 45.633C151.562 45.387 152.341 45.264 153.025 45.264C154.145 45.264 154.993 45.633 155.567 46.371C156.141 47.0817 156.428 48.093 156.428 49.405V57.072C156.428 58.0287 156.551 58.7257 156.797 59.163C157.043 59.6003 157.439 59.819 157.986 59.819C158.478 59.819 159.161 59.6413 160.036 59.286C160.172 59.2313 160.268 59.286 160.323 59.45C160.377 59.5867 160.336 59.6823 160.2 59.737L155.977 61.746ZM148.597 61.787C147.558 61.787 146.765 61.5137 146.219 60.967C145.672 60.393 145.399 59.7233 145.399 58.958C145.399 58.4113 145.535 57.9193 145.809 57.482C146.109 57.0173 146.574 56.5937 147.203 56.211C147.831 55.8283 148.638 55.4593 149.622 55.104L154.542 53.259L154.665 53.792L150.319 55.473C149.827 55.6643 149.417 55.883 149.089 56.129C148.761 56.375 148.515 56.6483 148.351 56.949C148.214 57.2497 148.146 57.5777 148.146 57.933C148.146 58.5617 148.351 59.1083 148.761 59.573C149.171 60.0377 149.731 60.27 150.442 60.27C150.715 60.27 151.002 60.229 151.303 60.147C151.603 60.065 151.972 59.8873 152.41 59.614L154.993 58.056L155.075 58.589L152.041 60.557C151.385 60.9943 150.783 61.3087 150.237 61.5C149.717 61.6913 149.171 61.787 148.597 61.787ZM167.987 61.992C167.331 61.992 166.703 61.8827 166.101 61.664C165.5 61.4727 165.008 61.131 164.625 60.639C164.243 60.147 164.051 59.4773 164.051 58.63V48.995C164.051 48.339 164.01 47.847 163.928 47.519C163.846 47.191 163.655 46.986 163.354 46.904C163.054 46.7947 162.589 46.74 161.96 46.74C161.851 46.74 161.796 46.658 161.796 46.494C161.796 46.3027 161.851 46.207 161.96 46.207C163.054 46.1797 163.942 45.879 164.625 45.305C165.336 44.731 165.732 43.993 165.814 43.091C165.814 43.009 165.91 42.968 166.101 42.968C166.32 42.968 166.429 43.009 166.429 43.091V57.236C166.429 58.3567 166.703 59.1903 167.249 59.737C167.823 60.2837 168.63 60.557 169.668 60.557C170.379 60.557 171.008 60.4477 171.554 60.229C172.128 59.983 172.593 59.7097 172.948 59.409C173.058 59.3543 173.153 59.3953 173.235 59.532C173.345 59.6413 173.345 59.737 173.235 59.819C172.224 60.5843 171.308 61.1447 170.488 61.5C169.696 61.828 168.862 61.992 167.987 61.992ZM171.964 47.683C170.898 47.4097 169.873 47.232 168.889 47.15C167.905 47.068 166.853 47.027 165.732 47.027V46.125C166.826 46.125 167.878 46.084 168.889 46.002C169.901 45.92 170.98 45.8243 172.128 45.715C172.183 45.715 172.238 45.8107 172.292 46.002C172.374 46.1933 172.415 46.4257 172.415 46.699C172.415 46.8903 172.361 47.109 172.251 47.355C172.169 47.601 172.074 47.7103 171.964 47.683ZM176.306 61.5C176.251 61.5 176.224 61.418 176.224 61.254C176.224 61.09 176.251 61.008 176.306 61.008C177.372 61.008 178.069 60.8303 178.397 60.475C178.752 60.0923 178.93 59.327 178.93 58.179V50.512C178.93 49.5553 178.834 48.8583 178.643 48.421C178.451 47.9563 178.096 47.724 177.577 47.724C177.358 47.724 177.098 47.7787 176.798 47.888C176.497 47.97 176.142 48.1067 175.732 48.298C175.622 48.3253 175.527 48.2707 175.445 48.134C175.39 47.97 175.404 47.8607 175.486 47.806L180.816 45.346C180.898 45.3187 180.952 45.305 180.98 45.305C181.034 45.305 181.103 45.346 181.185 45.428C181.267 45.4827 181.308 45.551 181.308 45.633C181.308 45.8517 181.294 46.3847 181.267 47.232C181.239 48.0793 181.226 49.159 181.226 50.471V58.179C181.226 59.327 181.376 60.0923 181.677 60.475C182.005 60.8303 182.715 61.008 183.809 61.008C183.891 61.008 183.932 61.09 183.932 61.254C183.932 61.418 183.891 61.5 183.809 61.5C183.317 61.5 182.743 61.4863 182.087 61.459C181.458 61.4317 180.788 61.418 180.078 61.418C179.367 61.418 178.684 61.4317 178.028 61.459C177.399 61.4863 176.825 61.5 176.306 61.5ZM179.75 40.508C179.203 40.508 178.766 40.3577 178.438 40.057C178.11 39.7563 177.946 39.3327 177.946 38.786C177.946 38.2393 178.11 37.8157 178.438 37.515C178.766 37.2143 179.203 37.064 179.75 37.064C180.296 37.064 180.72 37.2143 181.021 37.515C181.321 37.8157 181.472 38.2393 181.472 38.786C181.472 39.934 180.898 40.508 179.75 40.508ZM198.218 61.746C198.108 61.8007 197.999 61.828 197.89 61.828C197.534 61.828 197.193 61.541 196.865 60.967C196.537 60.3657 196.373 59.5047 196.373 58.384V50.635C196.373 48.9403 196.127 47.7513 195.635 47.068C195.17 46.3847 194.555 46.043 193.79 46.043C193.106 46.043 192.546 46.2207 192.109 46.576C191.671 46.904 191.343 47.3003 191.125 47.765C190.933 48.2297 190.797 48.667 190.715 49.077C190.633 49.4597 190.496 49.8423 190.305 50.225C190.113 50.5803 189.731 50.758 189.157 50.758C188.692 50.758 188.35 50.635 188.132 50.389C187.913 50.1157 187.804 49.8287 187.804 49.528C187.804 49.0087 188.05 48.503 188.542 48.011C189.061 47.519 189.703 47.068 190.469 46.658C191.261 46.2207 192.081 45.879 192.929 45.633C193.803 45.387 194.582 45.264 195.266 45.264C196.386 45.264 197.234 45.633 197.808 46.371C198.382 47.0817 198.669 48.093 198.669 49.405V57.072C198.669 58.0287 198.792 58.7257 199.038 59.163C199.284 59.6003 199.68 59.819 200.227 59.819C200.719 59.819 201.402 59.6413 202.277 59.286C202.413 59.2313 202.509 59.286 202.564 59.45C202.618 59.5867 202.577 59.6823 202.441 59.737L198.218 61.746ZM190.838 61.787C189.799 61.787 189.006 61.5137 188.46 60.967C187.913 60.393 187.64 59.7233 187.64 58.958C187.64 58.4113 187.776 57.9193 188.05 57.482C188.35 57.0173 188.815 56.5937 189.444 56.211C190.072 55.8283 190.879 55.4593 191.863 55.104L196.783 53.259L196.906 53.792L192.56 55.473C192.068 55.6643 191.658 55.883 191.33 56.129C191.002 56.375 190.756 56.6483 190.592 56.949C190.455 57.2497 190.387 57.5777 190.387 57.933C190.387 58.5617 190.592 59.1083 191.002 59.573C191.412 60.0377 191.972 60.27 192.683 60.27C192.956 60.27 193.243 60.229 193.544 60.147C193.844 60.065 194.213 59.8873 194.651 59.614L197.234 58.056L197.316 58.589L194.282 60.557C193.626 60.9943 193.024 61.3087 192.478 61.5C191.958 61.6913 191.412 61.787 190.838 61.787ZM215.395 61.5C215.313 61.5 215.272 61.418 215.272 61.254C215.272 61.09 215.313 61.008 215.395 61.008C216.461 61.008 217.144 60.8303 217.445 60.475C217.773 60.0923 217.937 59.327 217.937 58.179V51.537C217.937 49.897 217.636 48.708 217.035 47.97C216.433 47.2047 215.477 46.822 214.165 46.822C213.181 46.822 212.169 47.1363 211.131 47.765C210.092 48.3937 209.204 49.2547 208.466 50.348L208.302 49.856C209.504 48.2433 210.693 47.0543 211.869 46.289C213.071 45.5237 214.288 45.141 215.518 45.141C217.021 45.141 218.183 45.5647 219.003 46.412C219.85 47.232 220.274 48.4757 220.274 50.143V58.179C220.274 59.327 220.424 60.0923 220.725 60.475C221.053 60.8303 221.75 61.008 222.816 61.008C222.898 61.008 222.939 61.09 222.939 61.254C222.939 61.418 222.898 61.5 222.816 61.5C222.351 61.5 221.791 61.4863 221.135 61.459C220.506 61.4317 219.836 61.418 219.126 61.418C218.415 61.418 217.732 61.4317 217.076 61.459C216.42 61.4863 215.859 61.5 215.395 61.5ZM204.366 61.5C204.284 61.5 204.243 61.418 204.243 61.254C204.243 61.09 204.284 61.008 204.366 61.008C205.432 61.008 206.115 60.8303 206.416 60.475C206.744 60.0923 206.908 59.327 206.908 58.179V50.061C206.908 49.159 206.798 48.503 206.58 48.093C206.388 47.6557 206.019 47.437 205.473 47.437C205.199 47.437 204.871 47.4917 204.489 47.601C204.133 47.7103 203.723 47.8607 203.259 48.052C203.149 48.0793 203.054 48.0247 202.972 47.888C202.917 47.7513 202.944 47.6557 203.054 47.601L207.81 45.346C207.892 45.3187 207.974 45.305 208.056 45.305C208.247 45.305 208.493 45.592 208.794 46.166C209.094 46.74 209.245 47.5737 209.245 48.667V58.179C209.245 59.327 209.395 60.0923 209.696 60.475C210.024 60.8303 210.721 61.008 211.787 61.008C211.869 61.008 211.91 61.09 211.91 61.254C211.91 61.418 211.869 61.5 211.787 61.5C211.322 61.5 210.762 61.4863 210.106 61.459C209.477 61.4317 208.807 61.418 208.097 61.418C207.386 61.418 206.703 61.4317 206.047 61.459C205.391 61.4863 204.83 61.5 204.366 61.5ZM232.68 61.992C231.04 61.992 229.66 61.623 228.539 60.885C227.419 60.1197 226.571 59.1357 225.997 57.933C225.451 56.7303 225.177 55.4593 225.177 54.12C225.177 52.4527 225.56 50.963 226.325 49.651C227.091 48.3117 228.129 47.2593 229.441 46.494C230.781 45.7013 232.243 45.305 233.828 45.305C235.386 45.305 236.562 45.715 237.354 46.535C238.174 47.355 238.584 48.503 238.584 49.979C238.584 50.3343 238.543 50.6077 238.461 50.799C238.407 50.963 238.284 51.045 238.092 51.045H235.796C235.906 49.3777 235.66 48.1477 235.058 47.355C234.457 46.535 233.596 46.125 232.475 46.125C231.027 46.125 229.892 46.699 229.072 47.847C228.28 48.995 227.883 50.5667 227.883 52.562C227.883 54.12 228.129 55.5003 228.621 56.703C229.113 57.9057 229.838 58.8487 230.794 59.532C231.751 60.2153 232.913 60.557 234.279 60.557C235.209 60.557 235.974 60.4203 236.575 60.147C237.177 59.8737 237.778 59.5593 238.379 59.204C238.434 59.1493 238.502 59.1903 238.584 59.327C238.694 59.4363 238.721 59.532 238.666 59.614C237.71 60.4613 236.726 61.0763 235.714 61.459C234.73 61.8143 233.719 61.992 232.68 61.992ZM227.145 51.086L227.104 50.553L236.411 50.389V51.045L227.145 51.086ZM257.919 58.015C257.919 58.835 258.028 59.4637 258.247 59.901C258.466 60.311 258.93 60.598 259.641 60.762C260.352 60.926 261.404 61.008 262.798 61.008C262.88 61.008 262.921 61.09 262.921 61.254C262.921 61.418 262.88 61.5 262.798 61.5C261.923 61.5 260.967 61.4863 259.928 61.459C258.917 61.4317 257.81 61.418 256.607 61.418C255.705 61.418 254.83 61.4317 253.983 61.459C253.163 61.4863 252.425 61.5 251.769 61.5C251.714 61.5 251.687 61.418 251.687 61.254C251.687 61.09 251.714 61.008 251.769 61.008C252.78 61.008 253.532 60.9397 254.024 60.803C254.516 60.6663 254.844 60.393 255.008 59.983C255.172 59.573 255.254 58.9717 255.254 58.179V39.196C255.254 38.4033 255.172 37.8157 255.008 37.433C254.844 37.023 254.516 36.7497 254.024 36.613C253.532 36.449 252.78 36.367 251.769 36.367C251.714 36.367 251.687 36.285 251.687 36.121C251.687 35.957 251.714 35.875 251.769 35.875C252.425 35.875 253.163 35.9023 253.983 35.957C254.803 35.9843 255.664 35.998 256.566 35.998C257.277 35.998 258.138 35.957 259.149 35.875C260.188 35.793 261.226 35.752 262.265 35.752C263.823 35.752 265.217 35.9843 266.447 36.449C267.704 36.9137 268.702 37.638 269.44 38.622C270.178 39.606 270.561 40.8907 270.588 42.476C270.588 43.9247 270.315 45.1683 269.768 46.207C269.249 47.2457 268.538 48.1067 267.636 48.79C266.761 49.446 265.791 49.938 264.725 50.266C263.659 50.594 262.593 50.758 261.527 50.758C261.199 50.758 260.857 50.7443 260.502 50.717C260.174 50.6897 259.86 50.635 259.559 50.553C259.45 50.5257 259.409 50.43 259.436 50.266C259.491 50.0747 259.559 49.9927 259.641 50.02C259.887 50.0747 260.133 50.1157 260.379 50.143C260.652 50.1703 260.898 50.184 261.117 50.184C262.238 50.184 263.29 49.938 264.274 49.446C265.258 48.954 266.051 48.2023 266.652 47.191C267.253 46.1523 267.554 44.8677 267.554 43.337C267.554 41.8337 267.281 40.5763 266.734 39.565C266.187 38.5263 265.436 37.7337 264.479 37.187C263.522 36.6403 262.456 36.367 261.281 36.367C260.379 36.367 259.682 36.4217 259.19 36.531C258.725 36.613 258.397 36.859 258.206 37.269C258.015 37.679 257.919 38.3487 257.919 39.278V58.015ZM280.327 61.992C278.687 61.992 277.306 61.623 276.186 60.885C275.065 60.1197 274.218 59.1357 273.644 57.933C273.097 56.7303 272.824 55.4593 272.824 54.12C272.824 52.4527 273.206 50.963 273.972 49.651C274.737 48.3117 275.776 47.2593 277.088 46.494C278.427 45.7013 279.889 45.305 281.475 45.305C283.033 45.305 284.208 45.715 285.001 46.535C285.821 47.355 286.231 48.503 286.231 49.979C286.231 50.3343 286.19 50.6077 286.108 50.799C286.053 50.963 285.93 51.045 285.739 51.045H283.443C283.552 49.3777 283.306 48.1477 282.705 47.355C282.103 46.535 281.242 46.125 280.122 46.125C278.673 46.125 277.539 46.699 276.719 47.847C275.926 48.995 275.53 50.5667 275.53 52.562C275.53 54.12 275.776 55.5003 276.268 56.703C276.76 57.9057 277.484 58.8487 278.441 59.532C279.397 60.2153 280.559 60.557 281.926 60.557C282.855 60.557 283.62 60.4203 284.222 60.147C284.823 59.8737 285.424 59.5593 286.026 59.204C286.08 59.1493 286.149 59.1903 286.231 59.327C286.34 59.4363 286.367 59.532 286.313 59.614C285.356 60.4613 284.372 61.0763 283.361 61.459C282.377 61.8143 281.365 61.992 280.327 61.992ZM274.792 51.086L274.751 50.553L284.058 50.389V51.045L274.792 51.086ZM300.958 61.5C300.876 61.5 300.835 61.418 300.835 61.254C300.835 61.09 300.876 61.008 300.958 61.008C302.024 61.008 302.707 60.8303 303.008 60.475C303.336 60.0923 303.5 59.327 303.5 58.179V51.537C303.5 49.897 303.199 48.708 302.598 47.97C301.997 47.2047 301.04 46.822 299.728 46.822C298.744 46.822 297.733 47.1363 296.694 47.765C295.655 48.3937 294.767 49.2547 294.029 50.348L293.865 49.856C295.068 48.2433 296.257 47.0543 297.432 46.289C298.635 45.5237 299.851 45.141 301.081 45.141C302.584 45.141 303.746 45.5647 304.566 46.412C305.413 47.232 305.837 48.4757 305.837 50.143V58.179C305.837 59.327 305.987 60.0923 306.288 60.475C306.616 60.8303 307.313 61.008 308.379 61.008C308.461 61.008 308.502 61.09 308.502 61.254C308.502 61.418 308.461 61.5 308.379 61.5C307.914 61.5 307.354 61.4863 306.698 61.459C306.069 61.4317 305.4 61.418 304.689 61.418C303.978 61.418 303.295 61.4317 302.639 61.459C301.983 61.4863 301.423 61.5 300.958 61.5ZM289.929 61.5C289.847 61.5 289.806 61.418 289.806 61.254C289.806 61.09 289.847 61.008 289.929 61.008C290.995 61.008 291.678 60.8303 291.979 60.475C292.307 60.0923 292.471 59.327 292.471 58.179V50.061C292.471 49.159 292.362 48.503 292.143 48.093C291.952 47.6557 291.583 47.437 291.036 47.437C290.763 47.437 290.435 47.4917 290.052 47.601C289.697 47.7103 289.287 47.8607 288.822 48.052C288.713 48.0793 288.617 48.0247 288.535 47.888C288.48 47.7513 288.508 47.6557 288.617 47.601L293.373 45.346C293.455 45.3187 293.537 45.305 293.619 45.305C293.81 45.305 294.056 45.592 294.357 46.166C294.658 46.74 294.808 47.5737 294.808 48.667V58.179C294.808 59.327 294.958 60.0923 295.259 60.475C295.587 60.8303 296.284 61.008 297.35 61.008C297.432 61.008 297.473 61.09 297.473 61.254C297.473 61.418 297.432 61.5 297.35 61.5C296.885 61.5 296.325 61.4863 295.669 61.459C295.04 61.4317 294.371 61.418 293.66 61.418C292.949 61.418 292.266 61.4317 291.61 61.459C290.954 61.4863 290.394 61.5 289.929 61.5ZM316.973 61.992C316.317 61.992 315.688 61.8827 315.087 61.664C314.485 61.4727 313.993 61.131 313.611 60.639C313.228 60.147 313.037 59.4773 313.037 58.63V48.995C313.037 48.339 312.996 47.847 312.914 47.519C312.832 47.191 312.64 46.986 312.34 46.904C312.039 46.7947 311.574 46.74 310.946 46.74C310.836 46.74 310.782 46.658 310.782 46.494C310.782 46.3027 310.836 46.207 310.946 46.207C312.039 46.1797 312.927 45.879 313.611 45.305C314.321 44.731 314.718 43.993 314.8 43.091C314.8 43.009 314.895 42.968 315.087 42.968C315.305 42.968 315.415 43.009 315.415 43.091V57.236C315.415 58.3567 315.688 59.1903 316.235 59.737C316.809 60.2837 317.615 60.557 318.654 60.557C319.364 60.557 319.993 60.4477 320.54 60.229C321.114 59.983 321.578 59.7097 321.934 59.409C322.043 59.3543 322.139 59.3953 322.221 59.532C322.33 59.6413 322.33 59.737 322.221 59.819C321.209 60.5843 320.294 61.1447 319.474 61.5C318.681 61.828 317.847 61.992 316.973 61.992ZM320.95 47.683C319.884 47.4097 318.859 47.232 317.875 47.15C316.891 47.068 315.838 47.027 314.718 47.027V46.125C315.811 46.125 316.863 46.084 317.875 46.002C318.886 45.92 319.966 45.8243 321.114 45.715C321.168 45.715 321.223 45.8107 321.278 46.002C321.36 46.1933 321.401 46.4257 321.401 46.699C321.401 46.8903 321.346 47.109 321.237 47.355C321.155 47.601 321.059 47.7103 320.95 47.683ZM332.097 61.992C330.457 61.992 329.077 61.623 327.956 60.885C326.835 60.1197 325.988 59.1357 325.414 57.933C324.867 56.7303 324.594 55.4593 324.594 54.12C324.594 52.4527 324.977 50.963 325.742 49.651C326.507 48.3117 327.546 47.2593 328.858 46.494C330.197 45.7013 331.66 45.305 333.245 45.305C334.803 45.305 335.978 45.715 336.771 46.535C337.591 47.355 338.001 48.503 338.001 49.979C338.001 50.3343 337.96 50.6077 337.878 50.799C337.823 50.963 337.7 51.045 337.509 51.045H335.213C335.322 49.3777 335.076 48.1477 334.475 47.355C333.874 46.535 333.013 46.125 331.892 46.125C330.443 46.125 329.309 46.699 328.489 47.847C327.696 48.995 327.3 50.5667 327.3 52.562C327.3 54.12 327.546 55.5003 328.038 56.703C328.53 57.9057 329.254 58.8487 330.211 59.532C331.168 60.2153 332.329 60.557 333.696 60.557C334.625 60.557 335.391 60.4203 335.992 60.147C336.593 59.8737 337.195 59.5593 337.796 59.204C337.851 59.1493 337.919 59.1903 338.001 59.327C338.11 59.4363 338.138 59.532 338.083 59.614C337.126 60.4613 336.142 61.0763 335.131 61.459C334.147 61.8143 333.136 61.992 332.097 61.992ZM326.562 51.086L326.521 50.553L335.828 50.389V51.045L326.562 51.086ZM352.528 61.746C352.419 61.8007 352.31 61.828 352.2 61.828C351.845 61.828 351.503 61.541 351.175 60.967C350.847 60.3657 350.683 59.5047 350.683 58.384V50.635C350.683 48.9403 350.437 47.7513 349.945 47.068C349.481 46.3847 348.866 46.043 348.1 46.043C347.417 46.043 346.857 46.2207 346.419 46.576C345.982 46.904 345.654 47.3003 345.435 47.765C345.244 48.2297 345.107 48.667 345.025 49.077C344.943 49.4597 344.807 49.8423 344.615 50.225C344.424 50.5803 344.041 50.758 343.467 50.758C343.003 50.758 342.661 50.635 342.442 50.389C342.224 50.1157 342.114 49.8287 342.114 49.528C342.114 49.0087 342.36 48.503 342.852 48.011C343.372 47.519 344.014 47.068 344.779 46.658C345.572 46.2207 346.392 45.879 347.239 45.633C348.114 45.387 348.893 45.264 349.576 45.264C350.697 45.264 351.544 45.633 352.118 46.371C352.692 47.0817 352.979 48.093 352.979 49.405V57.072C352.979 58.0287 353.102 58.7257 353.348 59.163C353.594 59.6003 353.991 59.819 354.537 59.819C355.029 59.819 355.713 59.6413 356.587 59.286C356.724 59.2313 356.82 59.286 356.874 59.45C356.929 59.5867 356.888 59.6823 356.751 59.737L352.528 61.746ZM345.148 61.787C344.11 61.787 343.317 61.5137 342.77 60.967C342.224 60.393 341.95 59.7233 341.95 58.958C341.95 58.4113 342.087 57.9193 342.36 57.482C342.661 57.0173 343.126 56.5937 343.754 56.211C344.383 55.8283 345.189 55.4593 346.173 55.104L351.093 53.259L351.216 53.792L346.87 55.473C346.378 55.6643 345.968 55.883 345.64 56.129C345.312 56.375 345.066 56.6483 344.902 56.949C344.766 57.2497 344.697 57.5777 344.697 57.933C344.697 58.5617 344.902 59.1083 345.312 59.573C345.722 60.0377 346.283 60.27 346.993 60.27C347.267 60.27 347.554 60.229 347.854 60.147C348.155 60.065 348.524 59.8873 348.961 59.614L351.544 58.056L351.626 58.589L348.592 60.557C347.936 60.9943 347.335 61.3087 346.788 61.5C346.269 61.6913 345.722 61.787 345.148 61.787ZM364.703 62.033C363.582 62.033 362.53 61.705 361.546 61.049C360.562 60.393 359.769 59.491 359.168 58.343C358.594 57.1677 358.307 55.7873 358.307 54.202C358.307 52.644 358.594 51.3047 359.168 50.184C359.769 49.036 360.535 48.093 361.464 47.355C362.393 46.617 363.405 46.0703 364.498 45.715C365.591 45.3323 366.644 45.141 367.655 45.141C368.612 45.141 369.514 45.305 370.361 45.633C371.208 45.961 371.974 46.412 372.657 46.986L372.206 49.733C371.523 48.667 370.757 47.7787 369.91 47.068C369.063 46.33 367.942 45.961 366.548 45.961C364.881 45.961 363.528 46.5623 362.489 47.765C361.478 48.9403 360.972 50.676 360.972 52.972C360.972 54.53 361.204 55.883 361.669 57.031C362.134 58.1517 362.776 59.0263 363.596 59.655C364.416 60.2563 365.318 60.557 366.302 60.557C367.532 60.557 368.625 60.2153 369.582 59.532C370.539 58.8487 371.441 58.0287 372.288 57.072L372.616 57.359C372.042 58.015 371.372 58.712 370.607 59.45C369.842 60.1607 368.967 60.7757 367.983 61.295C367.026 61.787 365.933 62.033 364.703 62.033ZM373.887 32.103V56.99C373.887 57.974 373.996 58.6847 374.215 59.122C374.434 59.5593 374.816 59.778 375.363 59.778C375.636 59.778 375.951 59.7507 376.306 59.696C376.689 59.614 377.085 59.45 377.495 59.204C377.632 59.1493 377.727 59.204 377.782 59.368C377.864 59.5047 377.85 59.6003 377.741 59.655L373.231 61.787C373.122 61.8417 373.012 61.869 372.903 61.869C372.575 61.869 372.274 61.5547 372.001 60.926C371.728 60.2973 371.591 59.3817 371.591 58.179V37.023C371.591 36.039 371.495 35.3283 371.304 34.891C371.113 34.4537 370.757 34.235 370.238 34.235C369.992 34.235 369.719 34.2897 369.418 34.399C369.145 34.481 368.789 34.6177 368.352 34.809C368.243 34.8637 368.147 34.809 368.065 34.645C368.01 34.481 368.024 34.3853 368.106 34.358L373.313 31.816C373.368 31.7887 373.436 31.775 373.518 31.775C373.6 31.775 373.682 31.816 373.764 31.898C373.846 31.9527 373.887 32.021 373.887 32.103ZM387.283 62.033C385.67 62.033 384.262 61.6367 383.06 60.844C381.857 60.0513 380.928 58.999 380.272 57.687C379.616 56.3477 379.288 54.9127 379.288 53.382C379.288 51.9607 379.547 50.7307 380.067 49.692C380.586 48.6533 381.283 47.806 382.158 47.15C383.032 46.4667 383.975 45.961 384.987 45.633C386.025 45.305 387.037 45.141 388.021 45.141C389.688 45.141 391.109 45.551 392.285 46.371C393.487 47.191 394.403 48.2433 395.032 49.528C395.66 50.8127 395.975 52.1657 395.975 53.587C395.975 55.3363 395.578 56.8397 394.786 58.097C393.993 59.3543 392.941 60.3247 391.629 61.008C390.317 61.6913 388.868 62.033 387.283 62.033ZM388.472 61.254C389.92 61.254 391.068 60.7483 391.916 59.737C392.763 58.6983 393.187 57.031 393.187 54.735C393.187 53.013 392.9 51.496 392.326 50.184C391.779 48.8447 391.014 47.806 390.03 47.068C389.046 46.3027 387.925 45.92 386.668 45.92C385.219 45.92 384.085 46.453 383.265 47.519C382.445 48.585 382.035 50.1157 382.035 52.111C382.035 53.7783 382.308 55.309 382.855 56.703C383.401 58.097 384.153 59.204 385.11 60.024C386.094 60.844 387.214 61.254 388.472 61.254Z" fill="#EAEAEA"/>
</svg>
