<svg width="324" height="169" viewBox="0 0 324 169" fill="none" xmlns="http://www.w3.org/2000/svg">
<path fill-rule="evenodd" clip-rule="evenodd" d="M161.396 0.96639C159.981 3.36828 156.673 8.63962 155.353 10.5952C153.348 13.5686 150.515 18.1965 149.671 19.878C147.27 24.6638 146.191 30.1529 146.879 34.0807C147.463 37.407 149.012 40.4725 153.159 46.5079C153.477 46.9706 153.936 47.6888 154.178 48.1039C154.42 48.519 154.931 49.3935 155.314 50.0471C156.136 51.4482 157.395 54.1856 157.218 54.1856C157.15 54.1856 157.205 54.3185 157.339 54.4812C157.975 55.2519 159.22 59.8286 159.682 63.0959C159.858 64.341 160.004 65.4724 160.006 65.6102C160.01 65.8631 163.671 66.2886 163.896 66.0623C163.959 65.9996 164.105 65.1685 164.221 64.2158C164.726 60.0787 165.904 55.8666 167.442 52.6997C168.552 50.4127 169.958 47.8973 170.178 47.8057C170.274 47.7649 170.354 47.6375 170.354 47.5222C170.354 47.4071 171.332 45.8472 172.527 44.0558C175.001 40.3457 176.034 38.3921 176.769 36.0318C177.203 34.6389 177.282 33.9165 177.277 31.3947C177.271 28.2955 177.047 26.8325 176.175 24.2034C174.98 20.5998 173.481 17.8841 168.456 10.2168C166.844 7.75719 164.766 4.47132 163.838 2.9149C162.909 1.35826 162.119 0.0481169 162.08 0.00319896C162.043 -0.041719 161.734 0.39175 161.396 0.96639ZM131.308 42.0393C128.135 42.5044 125.59 43.5148 123.277 45.2265C121.689 46.4019 120.415 47.9752 119.513 49.8748C115.466 58.4001 119.805 66.4778 129.326 68.1449C130.116 68.2834 130.808 68.3513 130.863 68.2962C130.918 68.2409 130.797 67.4592 130.595 66.5588C129.943 63.654 130.707 61.0193 132.736 59.1763C135.991 56.219 141.936 55.8949 146.877 58.4052C149.601 59.7888 151.436 61.5886 152.669 64.0837C153.135 65.0289 153.617 65.8757 153.738 65.9653C154.076 66.2165 158.47 66.0687 158.467 65.8063C158.461 65.1387 157.288 60.5073 156.786 59.1699C153.872 51.4055 148.198 45.2073 142.056 43.0789C138.85 41.9679 134.599 41.5567 131.308 42.0393ZM184.67 42.2502C181.006 43.0486 177.97 44.5813 175.274 46.9943C174.458 47.7244 173.709 48.4215 173.608 48.5432C169.015 54.1203 166.568 59.2232 165.622 65.1938L165.473 66.1342H167.989H170.504L170.754 65.3044C171.416 63.1081 174.219 59.9775 176.727 58.6335C179.002 57.4148 180.554 57.0149 183.47 56.8972C187.191 56.7468 189.317 57.3946 191.382 59.3086C193.487 61.2587 194.059 64.0456 193.12 67.7711L192.958 68.4124L194.145 68.2573C200.011 67.4912 204.257 64.1485 205.686 59.1732C206.243 57.2351 206.038 53.7567 205.237 51.5533C203.51 46.7989 200.552 44.1215 195.288 42.5469C192.54 41.7251 187.702 41.5899 184.67 42.2502ZM152.314 67.5235C151.597 67.8884 150.766 69.151 150.768 69.8732C150.77 70.5527 151.375 71.5434 152.1 72.0543C152.554 72.3738 153.715 72.43 161.564 72.5123C168.119 72.5814 170.723 72.536 171.305 72.3426C172.948 71.7974 173.665 70.0861 172.886 68.5706C172.183 67.204 172.475 67.2403 162.217 67.2439C155.172 67.2463 152.723 67.3155 152.314 67.5235ZM142.571 68.3542C138.849 68.9844 136.119 70.8842 134.64 73.874C133.983 75.2019 133.93 75.4711 133.93 77.525C133.93 79.562 133.988 79.8643 134.637 81.2414C136.338 84.8521 140.062 86.9064 144.943 86.9257C148.314 86.9392 150.866 86.0021 153.178 83.9009C155.077 82.175 156.89 78.9028 157.724 75.6933C158.271 73.5892 158.333 73.6574 155.883 73.6574H153.737L152.747 75.1277C151.379 77.1597 149.964 77.9722 147.795 77.9722C145.743 77.9722 144.322 77.163 143.505 75.5296C142.802 74.1232 142.781 71.6009 143.453 69.5086C143.698 68.7481 143.834 68.1373 143.756 68.1517C143.678 68.1659 143.145 68.257 142.571 68.3542ZM180.352 68.9669C180.966 70.7169 181.232 73.0467 180.947 74.1833C180.473 76.0763 179.288 77.3796 177.595 77.8675C176.48 78.1892 175.785 78.1328 174.387 77.6068C172.998 77.0844 171.292 75.5313 170.803 74.3436L170.52 73.6574H168.236C165.615 73.6574 165.676 73.5892 166.275 75.8546C167.811 81.6557 171.385 85.6273 176.048 86.715C177.661 87.0912 180.965 87.0343 182.568 86.6026C185.693 85.7609 188.125 83.906 189.33 81.4446C190.012 80.0514 190.051 79.8428 190.051 77.5296C190.051 75.2156 190.013 75.0082 189.329 73.6118C187.912 70.7185 185.027 68.8605 180.976 68.2323L180.043 68.0878L180.352 68.9669ZM159.629 75.0403C158.491 81.0613 154.929 86.1138 150.448 88.0648C149.78 88.3553 149.232 88.6735 149.23 88.7715C149.223 89.1105 151.271 89.8579 152.518 89.9717C154.527 90.1549 156.027 89.6008 157.481 88.1391L158.689 86.9241V88.2635C158.689 89.6823 159.29 91.8124 160.061 93.1292C160.916 94.5898 161.881 95.9942 162.033 96C162.117 96.0031 162.69 95.2342 163.306 94.2909C164.501 92.4623 165.232 90.4687 165.434 88.4861L165.558 87.2655L166.481 88.1597C167.936 89.569 168.842 89.9208 171.014 89.9208C172.53 89.9208 173.082 89.8228 173.93 89.4032C174.505 89.1185 174.969 88.8197 174.962 88.7394C174.955 88.6589 174.171 88.2183 173.22 87.7603C172.043 87.193 170.969 86.4362 169.852 85.3878C167.132 82.8333 165.601 80.0282 164.598 75.7628L164.104 73.6574H161.997H159.89L159.629 75.0403Z" fill="#DEBC5B"/>
<path fill-rule="evenodd" clip-rule="evenodd" d="M161.821 33.0536V65.8379H162.767H163.712L164.089 63.2467C165.102 56.2922 166.786 52.3073 172.014 44.5006C175.676 39.0328 176.658 36.8397 177.07 33.2108C177.595 28.5867 176.185 23.3866 172.834 17.5857C172.226 16.5316 170.313 13.5356 168.586 10.928C166.858 8.32029 164.664 4.89669 163.712 3.31996C162.759 1.74323 161.944 0.411934 161.901 0.361214C161.857 0.310714 161.821 15.0224 161.821 33.0536ZM186.343 42.0284C184.099 42.3415 181.098 43.2849 179.332 44.2329C177.507 45.212 175.607 46.6015 175.689 46.8959C175.72 47.0047 175.604 47.0935 175.433 47.0935C174.795 47.0935 170.497 52.162 170.766 52.5966C170.845 52.7234 170.764 52.8271 170.588 52.8271C170.281 52.8271 169.889 53.4154 169.963 53.7643C169.983 53.8554 169.909 53.9297 169.8 53.9297C169.516 53.9297 167.724 57.4891 167.025 59.4403C166.364 61.2872 165.578 64.4658 165.578 65.2952C165.578 65.8372 165.581 65.8379 167.893 65.8379H170.207L170.892 64.4596C172.22 61.788 173.546 60.3661 176.247 58.7197C182.257 55.0557 190.829 56.4161 193.037 61.3842C193.641 62.7437 193.782 65.1097 193.366 66.8854C193.188 67.6435 193.068 68.2636 193.099 68.2636C193.13 68.2636 193.987 68.107 195.003 67.9156C200.707 66.8419 204.454 63.626 205.662 58.7671C206.379 55.8871 205.961 53.03 204.343 49.761C202.496 46.0269 199.478 43.7442 194.801 42.5446C192.375 41.9225 188.707 41.6987 186.343 42.0284ZM161.821 69.6851V72.233L166.518 72.2321C170.783 72.2315 171.279 72.192 171.92 71.8017C173.322 70.9491 173.39 69.0339 172.063 67.7893C171.523 67.283 171.402 67.2697 166.666 67.2042L161.821 67.1372V69.6851ZM180.647 69.8624C181.251 72.098 181.123 74.4257 180.329 75.6787C179.224 77.4219 177.83 78.0965 175.728 77.9064C173.542 77.7086 171.678 76.3932 170.58 74.2728L170.208 73.5561H167.979H165.75L165.902 74.3831C166.598 78.1703 168.891 82.3195 171.398 84.3282C175.161 87.3438 181.646 87.6104 185.784 84.9196C187.461 83.8292 188.476 82.717 189.279 81.0914C189.948 79.7358 190 79.4701 190 77.4162C190 75.3704 189.946 75.0938 189.292 73.7727C188.397 71.9631 186.877 70.4249 185.144 69.5737C183.686 68.8573 181.735 68.2705 180.798 68.2663L180.215 68.2636L180.647 69.8624ZM161.821 84.6091C161.821 96.9546 161.731 96.4075 163.317 93.6574C164.586 91.4561 164.944 90.393 165.103 88.3454L165.247 86.4855L165.769 87.2472C166.898 88.8961 169.374 90.0362 171.323 89.8057C172.4 89.6785 174.653 88.8416 174.625 88.5796C174.616 88.5035 173.825 88.0576 172.866 87.5886C169.788 86.0835 167.327 83.4102 165.734 79.841C164.963 78.1126 164.031 74.9256 164.031 74.0155C164.031 73.6113 163.899 73.5561 162.926 73.5561H161.821V84.6091Z" fill="#402F25"/>
<path d="M30.9927 137.113C29.298 137.113 28.0133 137.55 27.1387 138.425C26.2913 139.3 25.6763 140.789 25.2937 142.894C25.2937 142.949 25.2117 142.976 25.0477 142.976C24.911 142.976 24.8427 142.949 24.8427 142.894C24.8973 142.539 24.952 142.047 25.0067 141.418C25.0613 140.762 25.116 140.065 25.1707 139.327C25.2527 138.589 25.3073 137.878 25.3347 137.195C25.3893 136.484 25.4167 135.91 25.4167 135.473C25.4167 135.336 25.485 135.268 25.6217 135.268C25.7857 135.268 25.8677 135.336 25.8677 135.473C25.8677 135.746 26.0043 135.951 26.2777 136.088C26.551 136.197 26.8517 136.279 27.1797 136.334C27.535 136.361 27.8357 136.375 28.0817 136.375C30.4323 136.457 33.1793 136.498 36.3227 136.498C38.2633 136.498 39.794 136.484 40.9147 136.457C42.0627 136.402 43.1697 136.375 44.2357 136.375C45.165 136.375 45.8757 136.32 46.3677 136.211C46.887 136.074 47.215 135.787 47.3517 135.35C47.379 135.241 47.461 135.186 47.5977 135.186C47.7343 135.186 47.8027 135.241 47.8027 135.35C47.7753 135.76 47.7343 136.32 47.6797 137.031C47.625 137.742 47.584 138.48 47.5567 139.245C47.5293 140.01 47.502 140.721 47.4747 141.377C47.4473 142.033 47.4337 142.539 47.4337 142.894C47.4337 142.949 47.3517 142.976 47.1877 142.976C47.0237 142.976 46.9417 142.949 46.9417 142.894C46.8597 140.762 46.4223 139.272 45.6297 138.425C44.837 137.55 43.525 137.113 41.6937 137.113C40.5457 137.113 39.6847 137.168 39.1107 137.277C38.5367 137.386 38.154 137.632 37.9627 138.015C37.7987 138.37 37.7167 138.958 37.7167 139.778V158.679C37.7167 159.472 37.8123 160.073 38.0037 160.483C38.195 160.893 38.564 161.166 39.1107 161.303C39.6847 161.44 40.5457 161.508 41.6937 161.508C41.7757 161.508 41.8167 161.59 41.8167 161.754C41.8167 161.918 41.7757 162 41.6937 162C40.983 162 40.1767 161.986 39.2747 161.959C38.3727 161.932 37.3887 161.918 36.3227 161.918C35.3113 161.918 34.3547 161.932 33.4527 161.959C32.5507 161.986 31.7307 162 30.9927 162C30.938 162 30.9107 161.918 30.9107 161.754C30.9107 161.59 30.938 161.508 30.9927 161.508C32.1133 161.508 32.9607 161.44 33.5347 161.303C34.136 161.166 34.5323 160.893 34.7237 160.483C34.915 160.073 35.0107 159.472 35.0107 158.679V139.696C35.0107 138.876 34.915 138.288 34.7237 137.933C34.5323 137.55 34.1497 137.318 33.5757 137.236C33.0017 137.154 32.1407 137.113 30.9927 137.113ZM59.2612 162.246C59.1519 162.301 59.0425 162.328 58.9332 162.328C58.5779 162.328 58.2362 162.041 57.9082 161.467C57.5802 160.866 57.4162 160.005 57.4162 158.884V151.135C57.4162 149.44 57.1702 148.251 56.6782 147.568C56.2135 146.885 55.5985 146.543 54.8332 146.543C54.1499 146.543 53.5895 146.721 53.1522 147.076C52.7149 147.404 52.3869 147.8 52.1682 148.265C51.9769 148.73 51.8402 149.167 51.7582 149.577C51.6762 149.96 51.5395 150.342 51.3482 150.725C51.1569 151.08 50.7742 151.258 50.2002 151.258C49.7355 151.258 49.3939 151.135 49.1752 150.889C48.9565 150.616 48.8472 150.329 48.8472 150.028C48.8472 149.509 49.0932 149.003 49.5852 148.511C50.1045 148.019 50.7469 147.568 51.5122 147.158C52.3049 146.721 53.1249 146.379 53.9722 146.133C54.8469 145.887 55.6259 145.764 56.3092 145.764C57.4299 145.764 58.2772 146.133 58.8512 146.871C59.4252 147.582 59.7122 148.593 59.7122 149.905V157.572C59.7122 158.529 59.8352 159.226 60.0812 159.663C60.3272 160.1 60.7235 160.319 61.2702 160.319C61.7622 160.319 62.4455 160.141 63.3202 159.786C63.4569 159.731 63.5525 159.786 63.6072 159.95C63.6619 160.087 63.6209 160.182 63.4842 160.237L59.2612 162.246ZM51.8812 162.287C50.8425 162.287 50.0499 162.014 49.5032 161.467C48.9565 160.893 48.6832 160.223 48.6832 159.458C48.6832 158.911 48.8199 158.419 49.0932 157.982C49.3939 157.517 49.8585 157.094 50.4872 156.711C51.1159 156.328 51.9222 155.959 52.9062 155.604L57.8262 153.759L57.9492 154.292L53.6032 155.973C53.1112 156.164 52.7012 156.383 52.3732 156.629C52.0452 156.875 51.7992 157.148 51.6352 157.449C51.4985 157.75 51.4302 158.078 51.4302 158.433C51.4302 159.062 51.6352 159.608 52.0452 160.073C52.4552 160.538 53.0155 160.77 53.7262 160.77C53.9995 160.77 54.2865 160.729 54.5872 160.647C54.8879 160.565 55.2569 160.387 55.6942 160.114L58.2772 158.556L58.3592 159.089L55.3252 161.057C54.6692 161.494 54.0679 161.809 53.5212 162C53.0019 162.191 52.4552 162.287 51.8812 162.287ZM71.272 162.492C70.616 162.492 69.9873 162.383 69.386 162.164C68.7846 161.973 68.2926 161.631 67.91 161.139C67.5273 160.647 67.336 159.977 67.336 159.13V149.495C67.336 148.839 67.295 148.347 67.213 148.019C67.131 147.691 66.9396 147.486 66.639 147.404C66.3383 147.295 65.8736 147.24 65.245 147.24C65.1356 147.24 65.081 147.158 65.081 146.994C65.081 146.803 65.1356 146.707 65.245 146.707C66.3383 146.68 67.2266 146.379 67.91 145.805C68.6206 145.231 69.017 144.493 69.099 143.591C69.099 143.509 69.1946 143.468 69.386 143.468C69.6046 143.468 69.714 143.509 69.714 143.591V157.736C69.714 158.857 69.9873 159.69 70.534 160.237C71.108 160.784 71.9143 161.057 72.953 161.057C73.6636 161.057 74.2923 160.948 74.839 160.729C75.413 160.483 75.8776 160.21 76.233 159.909C76.3423 159.854 76.438 159.895 76.52 160.032C76.6293 160.141 76.6293 160.237 76.52 160.319C75.5086 161.084 74.593 161.645 73.773 162C72.9803 162.328 72.1466 162.492 71.272 162.492ZM75.249 148.183C74.183 147.91 73.158 147.732 72.174 147.65C71.19 147.568 70.1376 147.527 69.017 147.527V146.625C70.1103 146.625 71.1626 146.584 72.174 146.502C73.1853 146.42 74.265 146.324 75.413 146.215C75.4676 146.215 75.5223 146.311 75.577 146.502C75.659 146.693 75.7 146.926 75.7 147.199C75.7 147.39 75.6453 147.609 75.536 147.855C75.454 148.101 75.3583 148.21 75.249 148.183ZM79.5905 162C79.5358 162 79.5085 161.918 79.5085 161.754C79.5085 161.59 79.5358 161.508 79.5905 161.508C80.6565 161.508 81.3535 161.33 81.6815 160.975C82.0368 160.592 82.2145 159.827 82.2145 158.679V151.012C82.2145 150.055 82.1188 149.358 81.9275 148.921C81.7361 148.456 81.3808 148.224 80.8615 148.224C80.6428 148.224 80.3831 148.279 80.0825 148.388C79.7818 148.47 79.4265 148.607 79.0165 148.798C78.9071 148.825 78.8115 148.771 78.7295 148.634C78.6748 148.47 78.6885 148.361 78.7705 148.306L84.1005 145.846C84.1825 145.819 84.2371 145.805 84.2645 145.805C84.3191 145.805 84.3875 145.846 84.4695 145.928C84.5515 145.983 84.5925 146.051 84.5925 146.133C84.5925 146.352 84.5788 146.885 84.5515 147.732C84.5241 148.579 84.5105 149.659 84.5105 150.971V158.679C84.5105 159.827 84.6608 160.592 84.9615 160.975C85.2895 161.33 86.0001 161.508 87.0935 161.508C87.1755 161.508 87.2165 161.59 87.2165 161.754C87.2165 161.918 87.1755 162 87.0935 162C86.6015 162 86.0275 161.986 85.3715 161.959C84.7428 161.932 84.0731 161.918 83.3625 161.918C82.6518 161.918 81.9685 161.932 81.3125 161.959C80.6838 161.986 80.1098 162 79.5905 162ZM83.0345 141.008C82.4878 141.008 82.0505 140.858 81.7225 140.557C81.3945 140.256 81.2305 139.833 81.2305 139.286C81.2305 138.739 81.3945 138.316 81.7225 138.015C82.0505 137.714 82.4878 137.564 83.0345 137.564C83.5811 137.564 84.0048 137.714 84.3055 138.015C84.6061 138.316 84.7565 138.739 84.7565 139.286C84.7565 140.434 84.1825 141.008 83.0345 141.008ZM101.502 162.246C101.393 162.301 101.284 162.328 101.174 162.328C100.819 162.328 100.477 162.041 100.149 161.467C99.8214 160.866 99.6574 160.005 99.6574 158.884V151.135C99.6574 149.44 99.4114 148.251 98.9194 147.568C98.4548 146.885 97.8398 146.543 97.0744 146.543C96.3911 146.543 95.8308 146.721 95.3934 147.076C94.9561 147.404 94.6281 147.8 94.4094 148.265C94.2181 148.73 94.0814 149.167 93.9994 149.577C93.9174 149.96 93.7808 150.342 93.5894 150.725C93.3981 151.08 93.0154 151.258 92.4414 151.258C91.9768 151.258 91.6351 151.135 91.4164 150.889C91.1978 150.616 91.0884 150.329 91.0884 150.028C91.0884 149.509 91.3344 149.003 91.8264 148.511C92.3458 148.019 92.9881 147.568 93.7534 147.158C94.5461 146.721 95.3661 146.379 96.2134 146.133C97.0881 145.887 97.8671 145.764 98.5504 145.764C99.6711 145.764 100.518 146.133 101.092 146.871C101.666 147.582 101.953 148.593 101.953 149.905V157.572C101.953 158.529 102.076 159.226 102.322 159.663C102.568 160.1 102.965 160.319 103.511 160.319C104.003 160.319 104.687 160.141 105.561 159.786C105.698 159.731 105.794 159.786 105.848 159.95C105.903 160.087 105.862 160.182 105.725 160.237L101.502 162.246ZM94.1224 162.287C93.0838 162.287 92.2911 162.014 91.7444 161.467C91.1978 160.893 90.9244 160.223 90.9244 159.458C90.9244 158.911 91.0611 158.419 91.3344 157.982C91.6351 157.517 92.0998 157.094 92.7284 156.711C93.3571 156.328 94.1634 155.959 95.1474 155.604L100.067 153.759L100.19 154.292L95.8444 155.973C95.3524 156.164 94.9424 156.383 94.6144 156.629C94.2864 156.875 94.0404 157.148 93.8764 157.449C93.7398 157.75 93.6714 158.078 93.6714 158.433C93.6714 159.062 93.8764 159.608 94.2864 160.073C94.6964 160.538 95.2568 160.77 95.9674 160.77C96.2408 160.77 96.5278 160.729 96.8284 160.647C97.1291 160.565 97.4981 160.387 97.9354 160.114L100.518 158.556L100.6 159.089L97.5664 161.057C96.9104 161.494 96.3091 161.809 95.7624 162C95.2431 162.191 94.6964 162.287 94.1224 162.287ZM118.679 162C118.597 162 118.556 161.918 118.556 161.754C118.556 161.59 118.597 161.508 118.679 161.508C119.745 161.508 120.429 161.33 120.729 160.975C121.057 160.592 121.221 159.827 121.221 158.679V152.037C121.221 150.397 120.921 149.208 120.319 148.47C119.718 147.705 118.761 147.322 117.449 147.322C116.465 147.322 115.454 147.636 114.415 148.265C113.377 148.894 112.488 149.755 111.75 150.848L111.586 150.356C112.789 148.743 113.978 147.554 115.153 146.789C116.356 146.024 117.572 145.641 118.802 145.641C120.306 145.641 121.467 146.065 122.287 146.912C123.135 147.732 123.558 148.976 123.558 150.643V158.679C123.558 159.827 123.709 160.592 124.009 160.975C124.337 161.33 125.034 161.508 126.1 161.508C126.182 161.508 126.223 161.59 126.223 161.754C126.223 161.918 126.182 162 126.1 162C125.636 162 125.075 161.986 124.419 161.959C123.791 161.932 123.121 161.918 122.41 161.918C121.7 161.918 121.016 161.932 120.36 161.959C119.704 161.986 119.144 162 118.679 162ZM107.65 162C107.568 162 107.527 161.918 107.527 161.754C107.527 161.59 107.568 161.508 107.65 161.508C108.716 161.508 109.4 161.33 109.7 160.975C110.028 160.592 110.192 159.827 110.192 158.679V150.561C110.192 149.659 110.083 149.003 109.864 148.593C109.673 148.156 109.304 147.937 108.757 147.937C108.484 147.937 108.156 147.992 107.773 148.101C107.418 148.21 107.008 148.361 106.543 148.552C106.434 148.579 106.338 148.525 106.256 148.388C106.202 148.251 106.229 148.156 106.338 148.101L111.094 145.846C111.176 145.819 111.258 145.805 111.34 145.805C111.532 145.805 111.778 146.092 112.078 146.666C112.379 147.24 112.529 148.074 112.529 149.167V158.679C112.529 159.827 112.68 160.592 112.98 160.975C113.308 161.33 114.005 161.508 115.071 161.508C115.153 161.508 115.194 161.59 115.194 161.754C115.194 161.918 115.153 162 115.071 162C114.607 162 114.046 161.986 113.39 161.959C112.762 161.932 112.092 161.918 111.381 161.918C110.671 161.918 109.987 161.932 109.331 161.959C108.675 161.986 108.115 162 107.65 162ZM135.965 162.492C134.325 162.492 132.945 162.123 131.824 161.385C130.703 160.62 129.856 159.636 129.282 158.433C128.735 157.23 128.462 155.959 128.462 154.62C128.462 152.953 128.845 151.463 129.61 150.151C130.375 148.812 131.414 147.759 132.726 146.994C134.065 146.201 135.528 145.805 137.113 145.805C138.671 145.805 139.846 146.215 140.639 147.035C141.459 147.855 141.869 149.003 141.869 150.479C141.869 150.834 141.828 151.108 141.746 151.299C141.691 151.463 141.568 151.545 141.377 151.545H139.081C139.19 149.878 138.944 148.648 138.343 147.855C137.742 147.035 136.881 146.625 135.76 146.625C134.311 146.625 133.177 147.199 132.357 148.347C131.564 149.495 131.168 151.067 131.168 153.062C131.168 154.62 131.414 156 131.906 157.203C132.398 158.406 133.122 159.349 134.079 160.032C135.036 160.715 136.197 161.057 137.564 161.057C138.493 161.057 139.259 160.92 139.86 160.647C140.461 160.374 141.063 160.059 141.664 159.704C141.719 159.649 141.787 159.69 141.869 159.827C141.978 159.936 142.006 160.032 141.951 160.114C140.994 160.961 140.01 161.576 138.999 161.959C138.015 162.314 137.004 162.492 135.965 162.492ZM130.43 151.586L130.389 151.053L139.696 150.889V151.545L130.43 151.586ZM161.204 158.515C161.204 159.335 161.313 159.964 161.532 160.401C161.75 160.811 162.215 161.098 162.926 161.262C163.636 161.426 164.689 161.508 166.083 161.508C166.165 161.508 166.206 161.59 166.206 161.754C166.206 161.918 166.165 162 166.083 162C165.208 162 164.251 161.986 163.213 161.959C162.201 161.932 161.094 161.918 159.892 161.918C158.99 161.918 158.115 161.932 157.268 161.959C156.448 161.986 155.71 162 155.054 162C154.999 162 154.972 161.918 154.972 161.754C154.972 161.59 154.999 161.508 155.054 161.508C156.065 161.508 156.817 161.44 157.309 161.303C157.801 161.166 158.129 160.893 158.293 160.483C158.457 160.073 158.539 159.472 158.539 158.679V139.696C158.539 138.903 158.457 138.316 158.293 137.933C158.129 137.523 157.801 137.25 157.309 137.113C156.817 136.949 156.065 136.867 155.054 136.867C154.999 136.867 154.972 136.785 154.972 136.621C154.972 136.457 154.999 136.375 155.054 136.375C155.71 136.375 156.448 136.402 157.268 136.457C158.088 136.484 158.949 136.498 159.851 136.498C160.561 136.498 161.422 136.457 162.434 136.375C163.472 136.293 164.511 136.252 165.55 136.252C167.108 136.252 168.502 136.484 169.732 136.949C170.989 137.414 171.987 138.138 172.725 139.122C173.463 140.106 173.845 141.391 173.873 142.976C173.873 144.425 173.599 145.668 173.053 146.707C172.533 147.746 171.823 148.607 170.921 149.29C170.046 149.946 169.076 150.438 168.01 150.766C166.944 151.094 165.878 151.258 164.812 151.258C164.484 151.258 164.142 151.244 163.787 151.217C163.459 151.19 163.144 151.135 162.844 151.053C162.734 151.026 162.693 150.93 162.721 150.766C162.775 150.575 162.844 150.493 162.926 150.52C163.172 150.575 163.418 150.616 163.664 150.643C163.937 150.67 164.183 150.684 164.402 150.684C165.522 150.684 166.575 150.438 167.559 149.946C168.543 149.454 169.335 148.702 169.937 147.691C170.538 146.652 170.839 145.368 170.839 143.837C170.839 142.334 170.565 141.076 170.019 140.065C169.472 139.026 168.72 138.234 167.764 137.687C166.807 137.14 165.741 136.867 164.566 136.867C163.664 136.867 162.967 136.922 162.475 137.031C162.01 137.113 161.682 137.359 161.491 137.769C161.299 138.179 161.204 138.849 161.204 139.778V158.515ZM183.611 162.492C181.971 162.492 180.591 162.123 179.47 161.385C178.35 160.62 177.502 159.636 176.928 158.433C176.382 157.23 176.108 155.959 176.108 154.62C176.108 152.953 176.491 151.463 177.256 150.151C178.022 148.812 179.06 147.759 180.372 146.994C181.712 146.201 183.174 145.805 184.759 145.805C186.317 145.805 187.493 146.215 188.285 147.035C189.105 147.855 189.515 149.003 189.515 150.479C189.515 150.834 189.474 151.108 189.392 151.299C189.338 151.463 189.215 151.545 189.023 151.545H186.727C186.837 149.878 186.591 148.648 185.989 147.855C185.388 147.035 184.527 146.625 183.406 146.625C181.958 146.625 180.823 147.199 180.003 148.347C179.211 149.495 178.814 151.067 178.814 153.062C178.814 154.62 179.06 156 179.552 157.203C180.044 158.406 180.769 159.349 181.725 160.032C182.682 160.715 183.844 161.057 185.21 161.057C186.14 161.057 186.905 160.92 187.506 160.647C188.108 160.374 188.709 160.059 189.31 159.704C189.365 159.649 189.433 159.69 189.515 159.827C189.625 159.936 189.652 160.032 189.597 160.114C188.641 160.961 187.657 161.576 186.645 161.959C185.661 162.314 184.65 162.492 183.611 162.492ZM178.076 151.586L178.035 151.053L187.342 150.889V151.545L178.076 151.586ZM204.243 162C204.161 162 204.12 161.918 204.12 161.754C204.12 161.59 204.161 161.508 204.243 161.508C205.309 161.508 205.992 161.33 206.293 160.975C206.621 160.592 206.785 159.827 206.785 158.679V152.037C206.785 150.397 206.484 149.208 205.883 148.47C205.281 147.705 204.325 147.322 203.013 147.322C202.029 147.322 201.017 147.636 199.979 148.265C198.94 148.894 198.052 149.755 197.314 150.848L197.15 150.356C198.352 148.743 199.541 147.554 200.717 146.789C201.919 146.024 203.136 145.641 204.366 145.641C205.869 145.641 207.031 146.065 207.851 146.912C208.698 147.732 209.122 148.976 209.122 150.643V158.679C209.122 159.827 209.272 160.592 209.573 160.975C209.901 161.33 210.598 161.508 211.664 161.508C211.746 161.508 211.787 161.59 211.787 161.754C211.787 161.918 211.746 162 211.664 162C211.199 162 210.639 161.986 209.983 161.959C209.354 161.932 208.684 161.918 207.974 161.918C207.263 161.918 206.58 161.932 205.924 161.959C205.268 161.986 204.707 162 204.243 162ZM193.214 162C193.132 162 193.091 161.918 193.091 161.754C193.091 161.59 193.132 161.508 193.214 161.508C194.28 161.508 194.963 161.33 195.264 160.975C195.592 160.592 195.756 159.827 195.756 158.679V150.561C195.756 149.659 195.646 149.003 195.428 148.593C195.236 148.156 194.867 147.937 194.321 147.937C194.047 147.937 193.719 147.992 193.337 148.101C192.981 148.21 192.571 148.361 192.107 148.552C191.997 148.579 191.902 148.525 191.82 148.388C191.765 148.251 191.792 148.156 191.902 148.101L196.658 145.846C196.74 145.819 196.822 145.805 196.904 145.805C197.095 145.805 197.341 146.092 197.642 146.666C197.942 147.24 198.093 148.074 198.093 149.167V158.679C198.093 159.827 198.243 160.592 198.544 160.975C198.872 161.33 199.569 161.508 200.635 161.508C200.717 161.508 200.758 161.59 200.758 161.754C200.758 161.918 200.717 162 200.635 162C200.17 162 199.61 161.986 198.954 161.959C198.325 161.932 197.655 161.918 196.945 161.918C196.234 161.918 195.551 161.932 194.895 161.959C194.239 161.986 193.678 162 193.214 162ZM220.257 162.492C219.601 162.492 218.973 162.383 218.371 162.164C217.77 161.973 217.278 161.631 216.895 161.139C216.513 160.647 216.321 159.977 216.321 159.13V149.495C216.321 148.839 216.28 148.347 216.198 148.019C216.116 147.691 215.925 147.486 215.624 147.404C215.324 147.295 214.859 147.24 214.23 147.24C214.121 147.24 214.066 147.158 214.066 146.994C214.066 146.803 214.121 146.707 214.23 146.707C215.324 146.68 216.212 146.379 216.895 145.805C217.606 145.231 218.002 144.493 218.084 143.591C218.084 143.509 218.18 143.468 218.371 143.468C218.59 143.468 218.699 143.509 218.699 143.591V157.736C218.699 158.857 218.973 159.69 219.519 160.237C220.093 160.784 220.9 161.057 221.938 161.057C222.649 161.057 223.278 160.948 223.824 160.729C224.398 160.483 224.863 160.21 225.218 159.909C225.328 159.854 225.423 159.895 225.505 160.032C225.615 160.141 225.615 160.237 225.505 160.319C224.494 161.084 223.578 161.645 222.758 162C221.966 162.328 221.132 162.492 220.257 162.492ZM224.234 148.183C223.168 147.91 222.143 147.732 221.159 147.65C220.175 147.568 219.123 147.527 218.002 147.527V146.625C219.096 146.625 220.148 146.584 221.159 146.502C222.171 146.42 223.25 146.324 224.398 146.215C224.453 146.215 224.508 146.311 224.562 146.502C224.644 146.693 224.685 146.926 224.685 147.199C224.685 147.39 224.631 147.609 224.521 147.855C224.439 148.101 224.344 148.21 224.234 148.183ZM235.382 162.492C233.742 162.492 232.361 162.123 231.241 161.385C230.12 160.62 229.273 159.636 228.699 158.433C228.152 157.23 227.879 155.959 227.879 154.62C227.879 152.953 228.261 151.463 229.027 150.151C229.792 148.812 230.831 147.759 232.143 146.994C233.482 146.201 234.944 145.805 236.53 145.805C238.088 145.805 239.263 146.215 240.056 147.035C240.876 147.855 241.286 149.003 241.286 150.479C241.286 150.834 241.245 151.108 241.163 151.299C241.108 151.463 240.985 151.545 240.794 151.545H238.498C238.607 149.878 238.361 148.648 237.76 147.855C237.158 147.035 236.297 146.625 235.177 146.625C233.728 146.625 232.594 147.199 231.774 148.347C230.981 149.495 230.585 151.067 230.585 153.062C230.585 154.62 230.831 156 231.323 157.203C231.815 158.406 232.539 159.349 233.496 160.032C234.452 160.715 235.614 161.057 236.981 161.057C237.91 161.057 238.675 160.92 239.277 160.647C239.878 160.374 240.479 160.059 241.081 159.704C241.135 159.649 241.204 159.69 241.286 159.827C241.395 159.936 241.422 160.032 241.368 160.114C240.411 160.961 239.427 161.576 238.416 161.959C237.432 162.314 236.42 162.492 235.382 162.492ZM229.847 151.586L229.806 151.053L239.113 150.889V151.545L229.847 151.586ZM255.813 162.246C255.704 162.301 255.594 162.328 255.485 162.328C255.13 162.328 254.788 162.041 254.46 161.467C254.132 160.866 253.968 160.005 253.968 158.884V151.135C253.968 149.44 253.722 148.251 253.23 147.568C252.765 146.885 252.15 146.543 251.385 146.543C250.702 146.543 250.141 146.721 249.704 147.076C249.267 147.404 248.939 147.8 248.72 148.265C248.529 148.73 248.392 149.167 248.31 149.577C248.228 149.96 248.091 150.342 247.9 150.725C247.709 151.08 247.326 151.258 246.752 151.258C246.287 151.258 245.946 151.135 245.727 150.889C245.508 150.616 245.399 150.329 245.399 150.028C245.399 149.509 245.645 149.003 246.137 148.511C246.656 148.019 247.299 147.568 248.064 147.158C248.857 146.721 249.677 146.379 250.524 146.133C251.399 145.887 252.178 145.764 252.861 145.764C253.982 145.764 254.829 146.133 255.403 146.871C255.977 147.582 256.264 148.593 256.264 149.905V157.572C256.264 158.529 256.387 159.226 256.633 159.663C256.879 160.1 257.275 160.319 257.822 160.319C258.314 160.319 258.997 160.141 259.872 159.786C260.009 159.731 260.104 159.786 260.159 159.95C260.214 160.087 260.173 160.182 260.036 160.237L255.813 162.246ZM248.433 162.287C247.394 162.287 246.602 162.014 246.055 161.467C245.508 160.893 245.235 160.223 245.235 159.458C245.235 158.911 245.372 158.419 245.645 157.982C245.946 157.517 246.41 157.094 247.039 156.711C247.668 156.328 248.474 155.959 249.458 155.604L254.378 153.759L254.501 154.292L250.155 155.973C249.663 156.164 249.253 156.383 248.925 156.629C248.597 156.875 248.351 157.148 248.187 157.449C248.05 157.75 247.982 158.078 247.982 158.433C247.982 159.062 248.187 159.608 248.597 160.073C249.007 160.538 249.567 160.77 250.278 160.77C250.551 160.77 250.838 160.729 251.139 160.647C251.44 160.565 251.809 160.387 252.246 160.114L254.829 158.556L254.911 159.089L251.877 161.057C251.221 161.494 250.62 161.809 250.073 162C249.554 162.191 249.007 162.287 248.433 162.287ZM267.988 162.533C266.867 162.533 265.815 162.205 264.831 161.549C263.847 160.893 263.054 159.991 262.453 158.843C261.879 157.668 261.592 156.287 261.592 154.702C261.592 153.144 261.879 151.805 262.453 150.684C263.054 149.536 263.819 148.593 264.749 147.855C265.678 147.117 266.689 146.57 267.783 146.215C268.876 145.832 269.928 145.641 270.94 145.641C271.896 145.641 272.798 145.805 273.646 146.133C274.493 146.461 275.258 146.912 275.942 147.486L275.491 150.233C274.807 149.167 274.042 148.279 273.195 147.568C272.347 146.83 271.227 146.461 269.833 146.461C268.165 146.461 266.812 147.062 265.774 148.265C264.762 149.44 264.257 151.176 264.257 153.472C264.257 155.03 264.489 156.383 264.954 157.531C265.418 158.652 266.061 159.526 266.881 160.155C267.701 160.756 268.603 161.057 269.587 161.057C270.817 161.057 271.91 160.715 272.867 160.032C273.823 159.349 274.725 158.529 275.573 157.572L275.901 157.859C275.327 158.515 274.657 159.212 273.892 159.95C273.126 160.661 272.252 161.276 271.268 161.795C270.311 162.287 269.218 162.533 267.988 162.533ZM277.172 132.603V157.49C277.172 158.474 277.281 159.185 277.5 159.622C277.718 160.059 278.101 160.278 278.648 160.278C278.921 160.278 279.235 160.251 279.591 160.196C279.973 160.114 280.37 159.95 280.78 159.704C280.916 159.649 281.012 159.704 281.067 159.868C281.149 160.005 281.135 160.1 281.026 160.155L276.516 162.287C276.406 162.342 276.297 162.369 276.188 162.369C275.86 162.369 275.559 162.055 275.286 161.426C275.012 160.797 274.876 159.882 274.876 158.679V137.523C274.876 136.539 274.78 135.828 274.589 135.391C274.397 134.954 274.042 134.735 273.523 134.735C273.277 134.735 273.003 134.79 272.703 134.899C272.429 134.981 272.074 135.118 271.637 135.309C271.527 135.364 271.432 135.309 271.35 135.145C271.295 134.981 271.309 134.885 271.391 134.858L276.598 132.316C276.652 132.289 276.721 132.275 276.803 132.275C276.885 132.275 276.967 132.316 277.049 132.398C277.131 132.453 277.172 132.521 277.172 132.603ZM290.567 162.533C288.955 162.533 287.547 162.137 286.344 161.344C285.142 160.551 284.212 159.499 283.556 158.187C282.9 156.848 282.572 155.413 282.572 153.882C282.572 152.461 282.832 151.231 283.351 150.192C283.871 149.153 284.568 148.306 285.442 147.65C286.317 146.967 287.26 146.461 288.271 146.133C289.31 145.805 290.321 145.641 291.305 145.641C292.973 145.641 294.394 146.051 295.569 146.871C296.772 147.691 297.688 148.743 298.316 150.028C298.945 151.313 299.259 152.666 299.259 154.087C299.259 155.836 298.863 157.34 298.07 158.597C297.278 159.854 296.225 160.825 294.913 161.508C293.601 162.191 292.153 162.533 290.567 162.533ZM291.756 161.754C293.205 161.754 294.353 161.248 295.2 160.237C296.048 159.198 296.471 157.531 296.471 155.235C296.471 153.513 296.184 151.996 295.61 150.684C295.064 149.345 294.298 148.306 293.314 147.568C292.33 146.803 291.21 146.42 289.952 146.42C288.504 146.42 287.369 146.953 286.549 148.019C285.729 149.085 285.319 150.616 285.319 152.611C285.319 154.278 285.593 155.809 286.139 157.203C286.686 158.597 287.438 159.704 288.394 160.524C289.378 161.344 290.499 161.754 291.756 161.754Z" fill="black"/>
</svg>
